<svg xmlns="http://www.w3.org/2000/svg" width="81.114" height="46.718" viewBox="0 0 81.114 46.718"><path fill="none" d="M0 0h81.114v46.718H0z"/><path fill="none" d="M0 0h81.114v46.718H0z"/><path fill="none" d="M.407 0h4.996v19.086H.407zM8.13 5.472h12.783v13.614H8.13z"/><g opacity=".7" fill="#FFF"><path d="M2.95 0c1.362 0 2.452.958 2.452 2.151 0 1.194-1.116 2.152-2.511 2.152-1.365 0-2.484-.958-2.484-2.152C.407.958 1.558 0 2.95 0M.859 6.041l4.062-.545v13.59H.859zM8.13 6.352l3.604-.88c.365.545.576 1.114.576 1.659.94-.571 1.119-.674 1.787-.985.817-.364 1.876-.571 2.788-.571 1.726 0 3.242.777 3.724 1.919.211.493.304 1.064.304 1.892v9.7h-3.998v-8.635c0-1.506-.302-1.947-1.366-1.947-.817 0-1.876.469-2.815 1.194v9.388H8.677V9.464c0-1.142-.185-2.229-.547-3.112"/></g><path fill="#FFF" d="M22.881 6.041l4.15-.414 2.698 7.728c.274.804.82 2.749.82 2.749s.301-1.48.485-2.126c.241-.829.3-.961.602-1.84l2.336-6.305h4.273l-5.638 13.461c-1.061 2.566-1.847 3.681-2.968 4.381-1.03.65-2.363 1.064-3.757 1.22l-1.394-2.282c.878-.209 1.908-.518 2.518-.881.451-.286.814-.649 1.147-1.09.395-.544.518-.778.881-1.556h-1.031c-.241-.624-.363-.883-.638-1.556-.301-.805-.785-2.128-.816-2.177l-3.668-9.312zM45.599 5.549c2.21 0 3.936.649 5.27 1.997 1.24 1.244 1.789 2.697 1.789 4.848 0 2.284-.609 3.84-1.942 5.136-1.181 1.141-2.723 1.841-5.116 1.841-4.208 0-6.966-2.698-6.966-6.874-.002-4.175 2.786-6.948 6.965-6.948m.061 2.567c-.967 0-1.754.519-2.09 1.348-.269.701-.425 1.634-.425 2.957 0 1.532.181 2.671.519 3.344.361.728 1.268 1.091 2.055 1.091 1.76 0 2.517-1.35 2.517-4.487 0-1.79-.274-2.957-.821-3.553-.391-.441-1.029-.7-1.755-.7M55.502 6.121l3.996-.649v8.531c0 1.192.095 1.815.335 2.179.214.362.823.622 1.426.622 1 0 2.212-.622 2.514-1.27V6.197l3.876-.701v10.141c0 .882.334 1.791.942 2.411l-2.879 1.402a3.16 3.16 0 0 1-1.212-1.298c-.999.83-2.456 1.273-4.087 1.273-2.185 0-4.061-.885-4.579-2.154-.238-.599-.332-1.297-.332-2.647V6.121zM71.257 6.328l3.634-.832c.363.545.572 1.144.639 1.895.57-.675 1.543-1.374 2.299-1.686.334-.13.878-.209 1.33-.209.609 0 .883.053 1.519.286l-1.125 3.06a2.599 2.599 0 0 0-1.177-.258c-.91 0-1.727.361-2.49 1.114v9.388h-4.059v-8.869c-.001-1.788-.239-3.139-.57-3.889M3.265 28.022s.234.806.267 1.207c.676-.704 2.178-1.207 3.709-1.207 1.06 0 2.145.302 2.969.78 1.618.932 2.798 2.594 2.798 5.566 0 2.774-.498 4.209-2.09 5.621-1.028.933-2.385 1.462-4.033 1.462-1.175 0-2.295-.252-3.151-.682.065.303.065 1.058.065 1.058v4.031L0 46.718V28.012l3.265.01zm.559 10.002c.533.38 1.384.756 2.177.756 1.944 0 2.709-1.135 2.709-4.082 0-1.232-.117-2.218-.384-2.848-.292-.706-.91-1.082-1.878-1.082a3.96 3.96 0 0 0-2.624.982v6.274zM21.838 28.022c2.148 0 3.827.63 5.119 1.938 1.207 1.211 1.739 2.622 1.739 4.712 0 2.22-.589 3.731-1.884 4.989-1.147 1.108-2.649 1.79-4.974 1.79-4.093 0-6.769-2.623-6.769-6.678s2.709-6.751 6.769-6.751m.058 2.495c-.943 0-1.704.504-2.028 1.309-.27.683-.414 1.59-.414 2.873 0 1.486.174 2.596.501 3.251.354.704 1.233 1.059 2 1.059 1.707 0 2.442-1.311 2.442-4.36 0-1.737-.266-2.871-.798-3.451-.377-.429-.995-.681-1.703-.681M41.767 29.381L39.852 31.6c-.798-.63-1.649-1.009-2.385-1.009-1.766 0-2.559 1.313-2.559 4.336 0 1.687.234 2.693.765 3.25.412.451 1.088.731 1.766.731.91 0 1.731-.33 2.709-1.061l.23-.176 1.799 2.042c-.589.503-.856.678-1.385.957-1.058.529-2.235.806-3.676.806-4.152 0-6.566-2.469-6.566-6.65 0-2.976 1.324-4.941 3.09-5.974 1.003-.579 2.469-.958 3.742-.958.995 0 2.055.228 2.911.579.559.256.826.429 1.474.908M43.617 23.285l3.972-.832c.181.959.24 2.469.24 4.182v14.54h-3.944v-14.54c0-1.133-.033-2.016-.268-3.35m8.154 4.938h4.74l-4.8 5.444 5.917 7.508h-4.654l-5.062-7.309 3.859-5.643zM68.991 37.748l1.526 2.015c-1.738 1.209-3.56 1.789-5.678 1.789-4.33 0-7.126-2.62-7.126-6.677 0-2.318.561-3.854 1.886-5.115 1.234-1.184 2.738-1.737 4.74-1.737 1.735 0 3.385.503 4.354 1.358 1.382 1.21 2 2.949 2 5.645v.781H61.98v.102c0 1.992 1.15 3.125 3.179 3.125 1.358-.001 2.625-.429 3.832-1.286m-6.95-4.411h4.561v-.15c0-.957-.117-1.462-.469-1.94-.382-.502-.94-.756-1.739-.756-1.496 0-2.353 1.009-2.353 2.798v.048zM81.03 28.247l-1.006 2.243h-2.529v6.577c0 1.639.351 2.065 1.709 2.065.351 0 .703-.076 1.408-.252l.502 2.015c-1.145.405-2.178.582-3.208.582-2.003 0-3.62-.758-4.062-1.891-.233-.554-.261-.807-.261-1.99V30.49h-1.505v-2.191h1.505c0-1.261 0-2.116.145-3.074l4.001-.857a33.09 33.09 0 0 0-.234 3.88h3.535z"/></svg>